<?xml version="1.0" standalone="no"?>
<!DOCTYPE svg PUBLIC "-//W3C//DTD SVG 20010904//EN"
 "http://www.w3.org/TR/2001/REC-SVG-20010904/DTD/svg10.dtd">
<svg version="1.0" xmlns="http://www.w3.org/2000/svg"
 width="128.000000pt" height="128.000000pt" viewBox="0 0 128.000000 128.000000"
 preserveAspectRatio="xMidYMid meet">
<metadata>
Created by potrace 1.11, written by Peter Selinger 2001-2013
</metadata>
<g transform="translate(0.000000,128.000000) scale(0.100000,-0.100000)"
fill="#000000" stroke="none">
<path d="M548 1272 c-9 -4 -29 -18 -45 -32 -15 -14 -40 -26 -56 -26 -39 -3
-77 -30 -83 -62 -3 -16 -19 -36 -40 -50 -87 -57 -88 -126 -5 -202 28 -26 51
-52 51 -58 0 -27 70 -64 133 -71 4 -1 7 -7 7 -14 0 -7 -20 -19 -45 -26 -111
-33 -179 -211 -135 -354 46 -147 179 -237 334 -225 151 13 267 117 294 265 5
27 7 61 5 74 -2 13 -5 36 -7 50 -12 85 -88 181 -150 193 -22 4 -36 13 -36 21
0 8 3 15 8 16 61 6 103 31 133 80 13 21 27 39 30 39 4 0 23 16 43 36 55 55 44
129 -27 172 -18 12 -38 35 -45 55 -13 36 -46 59 -86 61 -14 1 -35 11 -48 23
-13 11 -33 26 -45 32 -23 12 -157 14 -185 3z"/>
<path d="M986 808 c-9 -12 -16 -32 -16 -44 0 -22 38 -54 65 -54 21 0 55 36 55
60 0 54 -74 81 -104 38z"/>
<path d="M255 810 c-4 -6 -11 -8 -16 -4 -19 11 -67 -18 -80 -47 -23 -57 32
-113 90 -92 20 7 78 90 80 115 3 26 -60 50 -74 28z"/>
<path d="M826 102 c-3 -5 1 -9 9 -9 8 0 12 4 9 9 -3 4 -7 8 -9 8 -2 0 -6 -4
-9 -8z"/>
</g>
</svg>
